<?xml version="1.0" encoding="UTF-8" standalone="no"?>
<svg
   xmlns:dc="http://purl.org/dc/elements/1.1/"
   xmlns:cc="http://creativecommons.org/ns#"
   xmlns:rdf="http://www.w3.org/1999/02/22-rdf-syntax-ns#"
   xmlns:svg="http://www.w3.org/2000/svg"
   xmlns="http://www.w3.org/2000/svg"
   xmlns:sodipodi="http://sodipodi.sourceforge.net/DTD/sodipodi-0.dtd"
   xmlns:inkscape="http://www.inkscape.org/namespaces/inkscape"
   width="50px"
   height="50px"
   viewBox="0 0 50 50"
   version="1.1"
   id="svg885"
   sodipodi:docname="btn-record-on.svg"
   inkscape:version="1.0.1 (3bc2e813f5, 2020-09-07)">
  <metadata
     id="metadata891">
    <rdf:RDF>
      <cc:Work
         rdf:about="">
        <dc:format>image/svg+xml</dc:format>
        <dc:type
           rdf:resource="http://purl.org/dc/dcmitype/StillImage" />
      </cc:Work>
    </rdf:RDF>
  </metadata>
  <defs
     id="defs889" />
  <sodipodi:namedview
     pagecolor="#ffffff"
     bordercolor="#666666"
     borderopacity="1"
     objecttolerance="10"
     gridtolerance="10"
     guidetolerance="10"
     inkscape:pageopacity="0"
     inkscape:pageshadow="2"
     inkscape:window-width="1920"
     inkscape:window-height="1057"
     id="namedview887"
     showgrid="false"
     inkscape:zoom="17.8"
     inkscape:cx="25"
     inkscape:cy="25"
     inkscape:window-x="-8"
     inkscape:window-y="-8"
     inkscape:window-maximized="1"
     inkscape:current-layer="svg885" />
  <!-- Generator: Sketch 57.1 (83088) - https://sketch.com -->
  <title
     id="title875">btn-record-on</title>
  <desc
     id="desc877">Created with Sketch.</desc>
  <g
     id="Symbols"
     stroke="none"
     stroke-width="1"
     fill="none"
     fill-rule="evenodd">
    <g
       id="btn-record-on">
      <g
         id="g881">
        <circle
           id="bg"
           fill="#3E44FE"
           cx="25"
           cy="25"
           r="25" />
        <path
           d="M25,9 C16.1779048,9 9,16.1771429 9,25 C9,33.8228571 16.1779048,41 25,41 C33.8220952,41 41,33.8228571 41,25 C41,16.1771429 33.8220952,9 25,9 M25,13 C18.3723077,13 13,18.3723077 13,25 C13,31.6276923 18.3723077,37 25,37 C31.6276923,37 37,31.6276923 37,25 C37,18.3723077 31.6276923,13 25,13 M17.5384615,21.5833333 L17.5384615,26.9447021 M21.25,18.1805725 L21.25,30.8465881 M32.3846154,22.2110291 L32.3846154,26.4548035 M24.9615385,21.0636335 L24.9615385,28.9386335 M28.6730769,19.1881226 L28.6730769,29.7953735"
           id="icon"
           stroke="#FFFFFF"
           stroke-width="1.65" />
      </g>
    </g>
  </g>
  <path
     style="fill:#ff0000;stroke-width:0.0561798"
     d="M 23.904494,49.935443 C 18.732991,49.748949 13.568271,47.809294 9.4095556,44.491743 3.7981762,40.01535 0.32121638,33.16377 0.06692057,26.081461 -0.1300576,20.595486 1.2589821,15.628838 4.2423826,11.151685 7.707436,5.9517225 12.942481,2.2709492 19.016854,0.76371764 c 3.847049,-0.9545667 8.006917,-0.9629855 11.882022,-0.024047 9.007555,2.18253146 16.097227,9.24892036 18.337407,18.27718336 0.954534,3.846921 0.964731,7.942661 0.02944,11.825843 -1.909118,7.92637 -7.521327,14.375009 -15.129668,17.384553 -3.2682,1.292765 -6.551402,1.840906 -10.231562,1.708193 z m 2.47191,-8.139686 C 33.547071,41.189298 39.537697,36.133961 41.319813,29.185393 43.305733,21.442187 39.57821,13.377604 32.38764,9.8604315 27.891535,7.6612213 22.662222,7.580273 18.075811,9.6388888 13.902975,11.511871 10.589061,15.122348 9.0991713,19.418852 6.9630449,25.578956 8.5056242,32.334376 13.0932,36.90991 c 3.515972,3.506743 8.390384,5.299656 13.283204,4.885847 z"
     id="path893" />
  <path
     style="fill:#ff0000;stroke-width:0.0561798"
     d="M 24.297753,40.131114 C 21.045616,39.932297 18.180647,38.864848 15.674157,36.918078 15.013807,36.405189 13.783124,35.194306 13.251709,34.534602 9.6348564,30.044605 8.8470546,24.079064 11.176855,18.822999 12.56537,15.690488 15.221504,12.9389 18.324256,11.418742 20.49828,10.353604 22.575993,9.8723 25,9.8723 c 2.20574,0 4.198575,0.420774 6.172548,1.303293 2.564486,1.146523 4.856364,3.094694 6.454345,5.486403 3.347676,5.010486 3.347676,11.665522 0,16.676008 -0.566967,0.848583 -1.0402,1.428019 -1.809651,2.215773 -2.677795,2.74149 -6.030075,4.290469 -9.862186,4.556995 -0.783403,0.05449 -1.046063,0.05771 -1.657303,0.02034 z m 2.5,-2.411303 c 2.227562,-0.327652 4.154493,-1.125598 5.941366,-2.46033 0.773081,-0.577465 1.942897,-1.747281 2.520362,-2.520362 1.717181,-2.298876 2.5711,-4.86921 2.5711,-7.739119 0,-1.517583 -0.185219,-2.694027 -0.637909,-4.051751 -0.647959,-1.943386 -1.654046,-3.56553 -3.115635,-5.023434 -2.069605,-2.064386 -4.557632,-3.285886 -7.504003,-3.684099 -0.687056,-0.09286 -2.459012,-0.09286 -3.146068,0 -2.942368,0.397672 -5.456983,1.631909 -7.502151,3.682247 -2.064386,2.069605 -3.285886,4.557632 -3.684099,7.504003 -0.09286,0.687056 -0.09286,2.459012 0,3.146068 0.39823,2.946494 1.623925,5.442933 3.683621,7.502629 2.257373,2.257374 4.927364,3.467287 8.289146,3.756248 0.474136,0.04075 1.993007,-0.02513 2.58427,-0.1121 z"
     id="path895" />
  <path
     style="fill:#ff0000;stroke-width:0.0561798"
     d="m 23.426966,36.036967 c -3.621455,-0.546613 -6.729625,-2.780644 -8.362681,-6.010771 -1.217407,-2.407987 -1.521241,-5.206871 -0.848481,-7.816095 1.084377,-4.205636 4.551691,-7.407249 8.874084,-8.194063 0.801868,-0.145965 2.546682,-0.175783 3.392916,-0.05798 4.839476,0.673679 8.614134,4.310226 9.507804,9.159924 0.148085,0.803614 0.148085,2.96043 0,3.764044 -0.863007,4.683296 -4.420415,8.249324 -9.080496,9.1025 -0.730834,0.133802 -2.743369,0.164105 -3.483146,0.05244 z M 22.078652,24.522472 v -6.376405 h -0.842697 -0.842697 v 6.376405 6.376404 h 0.842697 0.842697 z m 7.47191,-0.02809 v -5.337079 h -0.870787 -0.870786 v 5.337079 5.337079 h 0.870786 0.870787 z M 25.786517,25 V 21.011236 H 24.94382 24.101124 V 25 28.988764 h 0.842696 0.842697 z m -7.41573,-0.730337 V 21.573034 H 17.52809 16.685393 v 2.696629 2.696629 h 0.842697 0.842697 z m 14.88764,0.05618 V 22.191011 H 32.38764 31.516854 v 2.134832 2.134831 h 0.870786 0.870787 z"
     id="path897" />
</svg>
