<?xml version="1.0" encoding="UTF-8" standalone="no"?>
<svg
   xmlns:dc="http://purl.org/dc/elements/1.1/"
   xmlns:cc="http://creativecommons.org/ns#"
   xmlns:rdf="http://www.w3.org/1999/02/22-rdf-syntax-ns#"
   xmlns:svg="http://www.w3.org/2000/svg"
   xmlns="http://www.w3.org/2000/svg"
   xmlns:sodipodi="http://sodipodi.sourceforge.net/DTD/sodipodi-0.dtd"
   xmlns:inkscape="http://www.inkscape.org/namespaces/inkscape"
   width="50px"
   height="50px"
   viewBox="0 0 50 50"
   version="1.1"
   id="svg12"
   sodipodi:docname="btn-record-live.svg"
   inkscape:version="1.0.1 (3bc2e813f5, 2020-09-07)">
  <metadata
     id="metadata18">
    <rdf:RDF>
      <cc:Work
         rdf:about="">
        <dc:format>image/svg+xml</dc:format>
        <dc:type
           rdf:resource="http://purl.org/dc/dcmitype/StillImage" />
        <dc:title>btn-record-off</dc:title>
      </cc:Work>
    </rdf:RDF>
  </metadata>
  <defs
     id="defs16" />
  <sodipodi:namedview
     pagecolor="#ffffff"
     bordercolor="#666666"
     borderopacity="1"
     objecttolerance="10"
     gridtolerance="10"
     guidetolerance="10"
     inkscape:pageopacity="0"
     inkscape:pageshadow="2"
     inkscape:window-width="1920"
     inkscape:window-height="1057"
     id="namedview14"
     showgrid="false"
     inkscape:zoom="17.8"
     inkscape:cx="14.185393"
     inkscape:cy="25"
     inkscape:window-x="-8"
     inkscape:window-y="-8"
     inkscape:window-maximized="1"
     inkscape:current-layer="svg12" />
  <!-- Generator: Sketch 57.1 (83088) - https://sketch.com -->
  <title
     id="title2">btn-record-off</title>
  <desc
     id="desc4">Created with Sketch.</desc>
  <g
     id="Symbols"
     stroke="none"
     stroke-width="1"
     fill="none"
     fill-rule="evenodd">
    <g
       id="btn-record-off">
      <g
         id="g8">
        <circle
           id="bg"
           fill="#13141C"
           fill-rule="nonzero"
           cx="25"
           cy="25"
           r="25" />
        <path
           d="M25,9 C16.1779048,9 9,16.1771429 9,25 C9,33.8228571 16.1779048,41 25,41 C33.8220952,41 41,33.8228571 41,25 C41,16.1771429 33.8220952,9 25,9 M25,13 C18.3723077,13 13,18.3723077 13,25 C13,31.6276923 18.3723077,37 25,37 C31.6276923,37 37,31.6276923 37,25 C37,18.3723077 31.6276923,13 25,13 M17.5384615,21.5833333 L17.5384615,26.9447021 M21.25,18.1805725 L21.25,30.8465881 M32.3846154,22.2110291 L32.3846154,26.4548035 M24.9615385,21.0636335 L24.9615385,28.9386335 M28.6730769,19.1881226 L28.6730769,29.7953735"
           id="icon"
           stroke="#FFFFFF"
           stroke-width="1.65" />
      </g>
    </g>
  </g>
  <path
     style="fill:#4d4d4d;stroke-width:0.0561798"
     d="M 23.904494,49.938106 C 20.498541,49.796122 17.071456,48.918321 13.993695,47.399591 8.4019674,44.640337 4.0629508,39.935562 1.7808874,34.157303 0.10501232,29.913934 -0.36784106,25.335944 0.3969384,20.758427 0.53426725,19.936458 0.93500017,18.291065 1.2110469,17.41573 2.668236,12.795036 5.5703955,8.593873 9.4662921,5.4654461 13.522076,2.208629 18.762998,0.25408446 23.946629,0.06516306 c 3.01643,-0.1099361 5.845625,0.26538972 8.637641,1.14588384 3.382151,1.0666003 6.691347,3.001126 9.390699,5.489716 2.20794,2.0355478 4.112818,4.6047501 5.466008,7.3722711 1.25018,2.556847 2.0181,5.223874 2.40212,8.342696 0.09853,0.800231 0.09853,4.368309 0,5.16854 -0.531019,4.312673 -1.809531,7.836814 -4.086446,11.264045 -2.858792,4.303074 -7.001114,7.609395 -11.880247,9.482581 -2.3669,0.908696 -5.184667,1.502563 -7.528089,1.586607 -0.448034,0.01607 -0.953652,0.03676 -1.123596,0.04599 -0.169944,0.0092 -0.764045,-0.0022 -1.320225,-0.02538 z m 3.279724,-8.224451 c 1.834766,-0.252226 3.534137,-0.762294 5.147243,-1.544948 4.694058,-2.277486 8.08004,-6.594115 9.150922,-11.666079 0.628828,-2.978291 0.444213,-6.061878 -0.535264,-8.940361 C 38.628907,12.749516 32.199385,8.1472264 25,8.1472264 c -7.172889,0 -13.600053,4.5817986 -15.9285427,11.3551446 -2.1029916,6.117396 -0.5466663,12.853405 4.0227067,17.410877 2.812696,2.805369 6.448665,4.50893 10.417072,4.880711 0.774351,0.07254 2.899024,0.02609 3.672982,-0.0803 z"
     id="path20" />
  <path
     style="fill:#4d4d4d;stroke-width:0.0561798"
     d="M 23.932584,40.110087 C 20.882969,39.876145 17.974701,38.740143 15.589325,36.851116 14.980682,36.36912 13.90426,35.312622 13.359862,34.662921 11.486419,32.427096 10.274675,29.581624 9.9387101,26.629213 c -0.086293,-0.758325 -0.086293,-2.500101 0,-3.258426 0.2252129,-1.979133 0.8730579,-4.010483 1.8173079,-5.698254 1.940932,-3.469263 5.196556,-6.082382 8.960908,-7.192455 C 22.167432,10.052337 23.439715,9.8715846 25,9.8715846 c 1.161969,0 1.88641,0.06798 2.921348,0.2741354 3.034792,0.604514 5.696982,2.049928 7.868888,4.272345 0.790105,0.80848 1.238834,1.354807 1.792604,2.182496 1.352332,2.021249 2.202232,4.342868 2.47845,6.770226 0.08629,0.758325 0.08629,2.500101 0,3.258426 -0.309694,2.721547 -1.322935,5.254688 -3.007348,7.518489 -0.579078,0.778263 -2.127977,2.327162 -2.90624,2.90624 -1.931764,1.437356 -3.955192,2.345061 -6.251742,2.804518 -1.221048,0.244287 -2.773895,0.342874 -3.963376,0.251627 z m 2.829628,-2.383082 c 1.317071,-0.184979 2.669352,-0.592606 3.827676,-1.153803 1.330984,-0.64485 2.407458,-1.415026 3.487873,-2.495441 1.440949,-1.440949 2.444326,-3.044695 3.078465,-4.920458 0.481412,-1.424 0.67519,-2.617141 0.67519,-4.157303 0,-1.540162 -0.193778,-2.733303 -0.67519,-4.157303 -0.634139,-1.875763 -1.637516,-3.479509 -3.078465,-4.920458 -2.05489,-2.05489 -4.559253,-3.283431 -7.504727,-3.681523 -0.687056,-0.09286 -2.459012,-0.09286 -3.146068,0 -2.996414,0.404976 -5.642694,1.730139 -7.680459,3.846101 -1.930392,2.004468 -3.121789,4.498921 -3.505791,7.340149 -0.09286,0.687056 -0.09286,2.459012 0,3.146068 0.52178,3.860644 2.565696,7.116221 5.792992,9.227155 1.7707,1.158194 3.807427,1.827807 6.179775,2.031722 0.454526,0.03907 1.966813,-0.02318 2.548729,-0.104906 z"
     id="path22" />
  <path
     style="fill:#008000;stroke-width:0.0561798"
     d="m 23.426966,36.033967 c -3.529042,-0.512825 -6.664812,-2.735257 -8.284068,-5.871217 -0.645987,-1.251062 -0.999627,-2.349415 -1.184844,-3.679946 -0.117799,-0.846234 -0.08798,-2.591048 0.05798,-3.392916 0.874077,-4.801777 4.681152,-8.460865 9.501158,-9.131834 0.846234,-0.117799 2.591048,-0.08798 3.392916,0.05798 3.886404,0.70745 7.08731,3.356609 8.511528,7.044377 0.790711,2.04741 0.925362,4.546706 0.362556,6.729484 -0.77754,3.015602 -2.854816,5.628545 -5.614954,7.062883 -1.228963,0.638646 -2.349343,1.002338 -3.644065,1.182921 -0.774014,0.107956 -2.349429,0.107073 -3.098211,-0.0017 z M 22.078652,24.522472 v -6.376405 h -0.842697 -0.842697 v 6.376405 6.376404 h 0.842697 0.842697 z m 7.47191,-0.02809 v -5.337079 h -0.870787 -0.870786 v 5.337079 5.337079 h 0.870786 0.870787 z M 25.786517,25 V 21.011236 H 24.94382 24.101124 V 25 28.988764 h 0.842696 0.842697 z m -7.41573,-0.730337 V 21.573034 H 17.52809 16.685393 v 2.696629 2.696629 h 0.842697 0.842697 z m 14.88764,0.05618 V 22.191011 H 32.38764 31.516854 v 2.134832 2.134831 h 0.870786 0.870787 z"
     id="path24" />
  <path
     style="fill:#008000;stroke-width:0.0561798"
     d="m 23.370787,40.028334 c -2.844,-0.346357 -5.447565,-1.406256 -7.64045,-3.110391 C 15.10672,36.433317 13.923036,35.279987 13.35831,34.606742 11.625133,32.540511 10.471993,29.931639 10.018427,27.050562 9.8981162,26.286342 9.8810535,23.821849 9.9912,23.117978 c 0.302369,-1.932236 0.766947,-3.412553 1.565613,-4.988618 1.170602,-2.310036 3.159875,-4.481224 5.4169,-5.912264 1.840417,-1.166895 4.010362,-1.945132 6.200444,-2.2237502 0.745228,-0.094806 2.995371,-0.095418 3.679776,-10e-4 2.720249,0.3752752 5.071047,1.3393112 7.247191,2.9719952 0.793143,0.595067 2.35204,2.141327 2.90188,2.878357 1.800335,2.413246 2.843855,5.128939 3.059411,7.961913 0.07287,0.957682 0.03077,2.48492 -0.09083,3.29495 -0.44481,2.963111 -1.743041,5.746123 -3.677539,7.883522 -2.079454,2.297558 -4.399599,3.760218 -7.236375,4.561935 -1.789088,0.505625 -3.976926,0.691565 -5.686883,0.483317 z m 3.117977,-2.245882 c 1.019937,-0.08589 2.681012,-0.544198 3.820225,-1.054034 1.411265,-0.63159 2.512076,-1.404946 3.739745,-2.627294 0.953664,-0.94953 1.53076,-1.681114 2.1017,-2.664318 0.350529,-0.60364 0.788128,-1.532694 0.826041,-1.753744 0.0098,-0.05742 0.03408,-0.117051 0.05385,-0.1325 0.07489,-0.05852 0.451275,-1.347959 0.583697,-1.999645 0.295583,-1.454647 0.306096,-3.53216 0.02524,-4.987533 -0.177728,-0.920968 -0.775857,-2.788103 -0.893157,-2.788103 -0.02024,0 -0.04071,-0.05188 -0.04548,-0.115286 -0.01141,-0.151415 -0.51221,-1.080239 -0.907153,-1.682467 -0.449066,-0.684758 -0.945202,-1.288593 -1.628887,-1.982482 -1.942473,-1.971467 -4.187901,-3.163061 -6.909014,-3.666448 -0.9276,-0.171599 -2.407061,-0.235982 -3.407474,-0.148285 -0.615485,0.05395 -1.732289,0.244336 -1.93798,0.330368 -0.04635,0.01939 -0.103766,0.03106 -0.127597,0.02593 -0.02383,-0.0051 -0.390403,0.10583 -0.814607,0.246564 -0.797186,0.264476 -2.509087,1.061375 -2.708563,1.260851 -0.0623,0.0623 -0.123629,0.106957 -0.136282,0.09923 -0.04036,-0.02464 -0.719219,0.445871 -1.212498,0.84037 -1.914012,1.530729 -3.425484,3.748913 -4.183779,6.139968 -0.08329,0.26264 -0.158732,0.528089 -0.167641,0.589887 -0.0089,0.0618 -0.03139,0.150281 -0.04995,0.196629 -0.08349,0.208435 -0.272653,1.310037 -0.31761,1.849656 -0.209738,2.517466 0.212692,4.784213 1.300426,6.978063 0.243822,0.491765 0.493259,0.944064 0.554305,1.00511 0.06105,0.06105 0.110372,0.129952 0.109616,0.153126 -0.0024,0.07218 0.428858,0.694603 0.827083,1.193821 0.998376,1.25157 2.379942,2.398054 3.920191,3.253144 0.55199,0.306445 0.666151,0.354884 0.795573,0.337563 0.01972,-0.0026 0.05156,0.02061 0.07075,0.05167 0.04501,0.07283 0.623453,0.301812 0.624589,0.24725 4.49e-4,-0.02272 0.01943,-0.01347 0.04213,0.02057 0.03891,0.05834 0.729716,0.310891 0.912062,0.333441 0.04635,0.0057 0.122191,0.0255 0.168539,0.04393 0.130859,0.05203 0.736397,0.199119 0.955056,0.231986 0.108146,0.01626 0.323034,0.05573 0.477528,0.08772 0.154495,0.03199 0.443226,0.07034 0.641626,0.08523 0.1984,0.01489 0.375366,0.04256 0.393258,0.06149 0.03527,0.03731 1.864818,-0.0076 2.504442,-0.06143 z"
     id="path26" />
  <path
     style="fill:#008052;stroke-width:0.0561798;fill-opacity:1"
     d="m 23.707865,49.905172 c -0.200843,-0.0093 -0.748571,-0.05511 -1.217175,-0.10168 C 15.400956,49.098846 8.8706579,45.300089 4.6992174,39.45397 2.6946588,36.644654 1.2359578,33.293272 0.56842629,29.963429 -0.51406367,24.56365 0.19171037,19.001955 2.5835422,14.083756 4.7083833,9.7145567 8.356636,5.8046174 12.55618,3.3957879 18.209053,0.15333815 24.839348,-0.75179287 31.207865,0.8495632 c 2.614779,0.657483 5.242273,1.8400898 7.64045,3.4388839 5.506812,3.671231 9.331579,9.4038259 10.613881,15.9081819 0.37143,1.884043 0.38778,2.077693 0.401333,4.753384 0.007,1.378406 -0.01037,2.604529 -0.03857,2.724719 -0.02819,0.120189 -0.128677,0.698287 -0.223296,1.28466 -0.752757,4.665007 -2.732412,8.865625 -5.891468,12.501065 -3.522753,4.053982 -8.478843,6.914507 -13.822557,7.978018 -2.072741,0.412518 -4.082766,0.564315 -6.179775,0.466697 z m 3.595506,-8.192885 c 0.26264,-0.04578 0.515449,-0.08597 0.561798,-0.08932 0.175413,-0.01269 1.170692,-0.233004 1.629213,-0.360646 1.362419,-0.379267 3.419693,-1.241334 3.60869,-1.512162 0.0227,-0.03253 0.04166,-0.03876 0.04214,-0.01384 9.89e-4,0.05208 0.337939,-0.135882 0.337939,-0.18851 0,-0.01909 0.03216,-0.0347 0.07148,-0.0347 0.107005,0 1.220658,-0.736162 1.220658,-0.806896 0,-0.03364 0.02132,-0.04798 0.04737,-0.03188 0.08896,0.05498 1.271488,-0.938647 2.09391,-1.759418 1.552794,-1.549675 2.678346,-3.184902 3.526888,-5.123933 0.446639,-1.020631 1.078707,-2.984178 0.989369,-3.073517 -0.01504,-0.01504 -0.0046,-0.05496 0.02312,-0.0887 0.0444,-0.05396 0.273662,-1.328508 0.278836,-1.550113 0.0011,-0.04635 0.02738,-0.282622 0.05844,-0.525051 0.07289,-0.568991 0.07395,-2.368462 0.0018,-3.126635 -0.06094,-0.640731 -0.268731,-1.961411 -0.322247,-2.048185 -0.01825,-0.02959 -0.03872,-0.105434 -0.04549,-0.168539 -0.0505,-0.470837 -0.556224,-2.012267 -0.982769,-2.995465 C 39.609238,16.289374 38.48137,14.649363 36.916003,13.083996 35.715457,11.883448 34.571591,11.018162 33.117978,10.21095 32.154239,9.6757725 30.405581,8.9389888 30.314742,9.0298275 c -0.01861,0.018614 -0.03384,0.00164 -0.03384,-0.037711 0,-0.039354 -0.03484,-0.058184 -0.07742,-0.041843 -0.04258,0.01634 -0.09947,0.00806 -0.126404,-0.018396 C 30.003788,8.8599034 28.877281,8.5614888 28.174157,8.4277904 27.116426,8.2266646 26.206526,8.1460433 25.000344,8.146577 22.275553,8.1477848 19.872339,8.7107916 17.47191,9.9102882 15.813357,10.739069 14.552112,11.640227 13.181827,12.975548 10.57368,15.517146 8.9103888,18.769551 8.3109899,22.5 c -0.1513006,0.941641 -0.2090618,3.022907 -0.1125444,4.055212 0.1614067,1.726328 0.6081011,3.488919 1.293027,5.102091 0.2901067,0.683275 0.6810235,1.432585 0.7473825,1.432585 0.02677,0 0.03544,0.02141 0.01927,0.04757 -0.0348,0.0563 0.488247,0.926701 0.955374,1.58984 1.003799,1.425007 2.456826,2.890827 3.926947,3.96152 0.520589,0.379146 1.039326,0.706612 1.039326,0.6561 0,-0.0223 0.0316,4.5e-5 0.07023,0.04966 0.142399,0.182942 1.789548,1.030285 1.861976,0.957857 0.01875,-0.01875 0.03409,-0.0086 0.03409,0.02258 0,0.05063 0.629072,0.32438 0.842697,0.366709 0.04635,0.0092 0.09691,0.03278 0.11236,0.05244 0.06812,0.08669 1.698775,0.564291 2.455183,0.719103 1.465255,0.299888 1.901603,0.33653 3.668412,0.308049 1.050015,-0.01693 1.765489,-0.05446 2.078652,-0.109037 z"
     id="path28" />
  <path
     style="fill:#008052;fill-opacity:1;stroke-width:0.0561798"
     d="m 24.016854,40.048625 c -2.926701,-0.173707 -6.086025,-1.402775 -8.398876,-3.267403 -0.632348,-0.5098 -1.900751,-1.781066 -2.400482,-2.405899 -1.527893,-1.910384 -2.492745,-4.015325 -3.056191,-6.667452 -0.141317,-0.665175 -0.153228,-0.830322 -0.1758943,-2.438874 -0.019846,-1.408388 -0.00753,-1.831576 0.067057,-2.303371 0.542444,-3.431353 1.97231,-6.268015 4.355023,-8.639783 1.80003,-1.791762 3.901469,-3.041432 6.37158,-3.789007 1.406421,-0.425652 2.597346,-0.5917158 4.249019,-0.5924883 1.912309,-8.944e-4 3.357311,0.2536643 5.165439,0.9099693 1.319873,0.47908 3.139254,1.507631 4.168884,2.356794 0.51785,0.427085 1.848757,1.742766 2.302122,2.275786 1.255809,1.476449 2.428883,3.805353 2.972307,5.90092 0.312379,1.204607 0.412095,2.080796 0.411088,3.612183 -10e-4,1.518726 -0.06826,2.148073 -0.360247,3.370787 -0.524184,2.195042 -1.611785,4.425839 -2.944408,6.039325 -0.519281,0.628725 -1.584451,1.699667 -2.219283,2.231308 -2.855973,2.391743 -6.686714,3.633958 -10.507138,3.407205 z m 2.359276,-2.241572 c 1.712095,-0.151527 3.864868,-0.879246 5.3822,-1.819391 1.557542,-0.965058 3.241241,-2.645398 4.218152,-4.209735 0.251112,-0.402108 0.833942,-1.551275 0.958708,-1.890287 0.0398,-0.108146 0.10502,-0.272471 0.14493,-0.365168 0.189674,-0.440538 0.542951,-1.782275 0.643454,-2.44382 0.175202,-1.153248 0.162595,-3.233411 -0.02619,-4.321501 -0.143576,-0.82751 -0.624979,-2.439239 -0.88737,-2.970898 -0.93083,-1.886056 -1.593706,-2.814825 -2.914914,-4.084147 -1.437341,-1.380895 -2.95676,-2.309235 -4.7672,-2.912682 -1.538473,-0.512796 -2.77795,-0.685874 -4.573827,-0.638678 -1.60851,0.04227 -2.751878,0.266636 -4.132724,0.81097 -3.194272,1.259192 -5.49835,3.353759 -6.969803,6.336037 -0.629117,1.275067 -1.002277,2.45315 -1.210062,3.820225 -0.139578,0.918315 -0.140548,2.827727 -0.0019,3.719714 0.576315,3.707439 2.559541,6.84992 5.608079,8.886164 0.543057,0.362729 1.305065,0.802364 1.56244,0.901437 0.108146,0.04163 0.346033,0.148025 0.528636,0.236435 0.182604,0.08841 0.367146,0.160744 0.410094,0.160744 0.04295,0 0.150495,0.03744 0.238995,0.08321 0.384311,0.198735 1.767007,0.536986 2.75486,0.673925 0.65461,0.09074 2.163927,0.104401 3.033433,0.02745 z"
     id="path853" />
  <path
     style="fill:#008052;fill-opacity:1;stroke-width:0.0561798"
     d="m 23.279185,35.983724 c -1.862964,-0.300818 -3.772525,-1.159916 -5.273567,-2.372538 -0.231742,-0.187213 -0.675989,-0.602425 -0.987216,-0.922692 -2.268597,-2.334497 -3.355796,-5.445388 -3.064805,-8.76958 0.376779,-4.304201 3.433314,-8.104456 7.619437,-9.473409 1.316515,-0.430529 1.707388,-0.485125 3.455056,-0.482592 1.764622,0.0026 2.113696,0.05313 3.46122,0.501446 2.48786,0.827703 4.669134,2.575177 6.033071,4.833243 0.980806,1.623773 1.48123,3.314006 1.555235,5.25296 0.09948,2.606453 -0.636499,5.001658 -2.17407,7.075381 -0.416977,0.562377 -1.357461,1.540834 -1.907243,1.984251 -1.362916,1.099235 -3.094712,1.921141 -4.833382,2.29391 -0.506136,0.108515 -0.789297,0.128703 -1.994382,0.142192 -0.999423,0.01119 -1.544333,-0.0069 -1.889354,-0.06257 z M 22.106742,24.522472 v -6.376405 h -0.870787 -0.870786 v 6.376405 6.376404 h 0.870786 0.870787 z m 7.47191,-0.02809 v -5.337079 h -0.898877 -0.898876 v 5.337079 5.337079 h 0.898876 0.898877 z M 25.814607,25 V 21.011236 H 24.94382 24.073034 V 25 28.988764 h 0.870786 0.870787 z M 18.398876,24.269663 V 21.573034 H 17.52809 16.657303 v 2.696629 2.696629 h 0.870787 0.870786 z m 14.887641,0.05618 V 22.191011 H 32.38764 31.488764 v 2.134832 2.134831 h 0.898876 0.898877 z"
     id="path855" />
</svg>
